# xmcd
#
# Track frame offsets:
#	150
#	15498
#	29065
#	48145
#	61195
#	77503
#	92455
#	109540
#	124153
#	138408
#
# Disc length: 2036 seconds
#
# Revision: 11
# Processed by: cddbd v1.5.2PL0 Copyright (c) Steve Scherf et al.
# Submitted via: EasyCDDAExtractor 15.3.0.1
#
DISCID=7207f20a
DTITLE=Yolandita Monge - Sueños
DYEAR=1983
DGENRE=Latin
TTITLE0=Sola
TTITLE1=Siempre Tu
TTITLE2=El Amor
TTITLE3=Dime Que No
TTITLE4=La Distancia
TTITLE5=Sueños
TTITLE6=Roma
TTITLE7=¡Bah!
TTITLE8=Aceptame Como Soy
TTITLE9=Crisalida
EXTD=
EXTT0=
EXTT1=
EXTT2=
EXTT3=
EXTT4=
EXTT5=
EXTT6=
EXTT7=
EXTT8=
EXTT9=
PLAYORDER=
